<?xml version="1.0" standalone="no"?>
<!DOCTYPE svg PUBLIC "-//W3C//DTD SVG 20010904//EN"
 "http://www.w3.org/TR/2001/REC-SVG-20010904/DTD/svg10.dtd">
<svg version="1.0" xmlns="http://www.w3.org/2000/svg"
 width="670.000000pt" height="670.000000pt" viewBox="0 0 670.000000 670.000000"
 preserveAspectRatio="xMidYMid meet">
<metadata>
Created by potrace 1.14, written by Peter Selinger 2001-2017
</metadata>
<g transform="translate(0.000000,670.000000) scale(0.100000,-0.100000)"
fill="#000000" stroke="none">
<path d="M570 6512 c0 -3 137 -142 304 -311 167 -168 386 -389 486 -491 522
-531 986 -994 1037 -1033 228 -175 470 -278 760 -323 82 -13 333 -11 420 3
148 23 177 30 293 70 165 57 317 141 468 258 48 37 1073 1066 1763 1770 l59
61 -405 0 -406 0 -632 -639 c-348 -352 -654 -661 -680 -686 -290 -276 -737
-346 -1097 -171 -137 66 -201 119 -459 379 -123 124 -421 426 -663 671 l-440
445 -404 0 c-222 1 -404 -1 -404 -3z"/>
<path d="M572 4059 c-17 -7 -18 -42 -18 -717 1 -391 4 -713 8 -717 8 -8 808
-8 863 0 161 25 296 112 374 240 47 77 58 113 81 250 9 55 6 430 -4 510 -30
245 -177 397 -416 431 -61 9 -865 11 -888 3z m691 -346 c175 -256 250 -412
249 -528 -1 -253 -276 -414 -487 -287 -145 88 -202 242 -149 407 17 55 94 203
158 304 61 97 140 210 148 211 3 0 40 -48 81 -107z"/>
<path d="M890 3146 c0 -31 41 -122 71 -159 17 -21 53 -49 79 -62 51 -26 117
-38 126 -24 3 5 -6 9 -21 9 -36 0 -120 45 -159 85 -34 34 -76 112 -76 139 0 8
-4 18 -10 21 -5 3 -10 -1 -10 -9z"/>
<path d="M2371 4054 c-16 -7 -35 -22 -41 -35 -9 -17 -12 -193 -13 -706 0 -376
3 -686 7 -690 5 -6 39 -7 151 -4 l35 1 -1 275 c0 151 2 279 5 283 9 15 308 6
367 -11 62 -18 131 -67 172 -120 15 -19 32 -41 40 -49 7 -7 53 -60 102 -118
50 -58 108 -124 130 -148 22 -24 46 -54 54 -67 25 -40 54 -49 171 -49 61 -1
110 1 110 3 0 5 -45 64 -62 83 -7 7 -65 74 -128 148 -63 74 -119 140 -125 146
-5 6 -28 33 -50 60 -22 26 -49 58 -60 70 -11 12 -38 43 -60 70 -75 91 -131
133 -210 155 -16 5 -126 9 -242 9 l-213 0 0 265 0 265 292 -1 c230 -1 302 -5
338 -17 48 -16 103 -51 133 -86 62 -71 75 -187 32 -271 -28 -56 -35 -39 56
-138 l45 -48 30 43 c130 182 114 395 -42 552 -59 59 -164 117 -239 132 -71 13
-750 12 -784 -2z"/>
<path d="M4039 4060 c-12 -8 -13 -1420 -1 -1432 5 -5 105 -7 223 -6 l214 3 3
718 c1 394 -1 718 -5 718 -28 5 -425 4 -434 -1z"/>
<path d="M4969 4061 c-6 -30 -2 -1434 3 -1438 8 -4 72 -6 148 -4 l36 1 -1 273
c0 149 1 277 3 283 2 8 95 12 311 13 341 2 369 6 475 65 79 44 149 121 190
206 25 54 31 79 33 152 6 200 -115 364 -315 429 -64 21 -87 22 -474 24 -225 1
-408 -1 -409 -4z m851 -197 c208 -99 211 -364 5 -472 l-50 -26 -290 -3 c-159
-2 -299 -1 -310 2 -19 4 -20 12 -20 265 l0 261 310 -3 c292 -3 313 -4 355 -24z"/>
<path d="M3239 2347 c-2 -3 -31 -7 -64 -10 -164 -16 -314 -61 -500 -153 -254
-124 -184 -60 -1390 -1279 -357 -362 -667 -675 -689 -696 -21 -22 -34 -40 -30
-40 5 -1 187 -3 404 -3 l395 -2 440 444 c1017 1027 953 967 1105 1048 275 149
637 145 920 -8 142 -77 106 -42 1098 -1048 l430 -435 406 0 c223 -1 406 0 406
0 0 3 -1658 1680 -1725 1745 -236 228 -514 366 -855 425 -42 8 -344 17 -351
12z"/>
</g>
</svg>
